<svg xmlns="http://www.w3.org/2000/svg" xmlns:xlink="http://www.w3.org/1999/xlink" version="1.1" id="Layer_1" x="0px" y="0px" width="100px" height="100px" viewBox="0 0 100 100" enable-background="new 0 0 100 100" xml:space="preserve">
<g>
	<path d="M50,74.699c-1.119,0-1.9,0.781-1.9,1.9c0,1.118,0.781,1.899,1.9,1.899s1.9-0.781,1.9-1.899   C51.9,75.48,51.119,74.699,50,74.699z"/>
	<path d="M23.4,48.1c-1.119,0-1.9,0.781-1.9,1.9s0.781,1.9,1.9,1.9c1.119,0,1.9-0.781,1.9-1.9S24.519,48.1,23.4,48.1z"/>
	<path d="M50,25.3c1.119,0,1.9-0.781,1.9-1.9c0-1.119-0.781-1.9-1.9-1.9s-1.9,0.781-1.9,1.9C48.1,24.519,48.881,25.3,50,25.3z"/>
	<path d="M76.6,48.1c-1.117,0-1.898,0.781-1.898,1.9s0.781,1.9,1.898,1.9c1.119,0,1.9-0.781,1.9-1.9S77.719,48.1,76.6,48.1z"/>
	<path d="M50,4.7C25.021,4.7,4.7,25.021,4.7,50c0,24.979,20.321,45.3,45.3,45.3c24.979,0,45.3-20.321,45.3-45.3   C95.3,25.021,74.979,4.7,50,4.7z M50,91.5C27.117,91.5,8.5,72.883,8.5,50S27.117,8.5,50,8.5S91.5,27.117,91.5,50   S72.883,91.5,50,91.5z"/>
	<path d="M51.9,44.178V31.8c0-1.119-0.781-1.9-1.9-1.9s-1.9,0.781-1.9,1.9v12.375c-1.822,0.643-3.282,2.103-3.925,3.925H31.8   c-1.119,0-1.9,0.781-1.9,1.9s0.781,1.9,1.9,1.9h12.377c0.889,2.453,3.28,4.199,5.822,4.199c3.364,0,6.101-2.736,6.101-6.101   C56.1,47.458,54.354,45.067,51.9,44.178z M50,52.3c-1.268,0-2.3-1.03-2.3-2.3c0-1.268,1.032-2.3,2.3-2.3c1.27,0,2.3,1.032,2.3,2.3   C52.3,51.27,51.27,52.3,50,52.3z"/>
	<path d="M50,13.1c-20.347,0-36.9,16.553-36.9,36.9c0,20.348,16.553,36.9,36.9,36.9c20.346,0,36.898-16.555,36.898-36.9   C86.898,29.654,70.346,13.1,50,13.1z M50,83.1c-18.251,0-33.1-14.849-33.1-33.1S31.749,16.9,50,16.9S83.1,31.749,83.1,50   S68.251,83.1,50,83.1z"/>
</g>
</svg>